<svg xmlns="http://www.w3.org/2000/svg" version="1.1" xmlns:xlink="http://www.w3.org/1999/xlink" xmlns:svgjs="http://svgjs.com/svgjs" width="512" height="512" x="0" y="0" viewBox="0 0 64 64" style="enable-background:new 0 0 512 512" xml:space="preserve" class=""><g><path xmlns="http://www.w3.org/2000/svg" d="m48.676 41.948-10.676-2.965h-6-6l-10.676 2.966c-4.329 1.202-7.324 5.143-7.324 9.635v10.416h24 24v-10.416c0-4.492-2.995-8.433-7.324-9.636z" fill="#8380fb" data-original="#80d6fb" class=""></path><path xmlns="http://www.w3.org/2000/svg" d="m16 56h2v6h-2z" fill="#4652e8" data-original="#46bee8" class=""></path><path xmlns="http://www.w3.org/2000/svg" d="m38 38.983h-6-6l-1.973.548c.275 4.163 3.741 7.469 7.973 7.469s7.698-3.306 7.973-7.469z" fill="#4652e8" data-original="#46bee8" class=""></path><path xmlns="http://www.w3.org/2000/svg" d="m38 31.983h-12v7l.001.001c0 .005-.001.01-.001.016 0 3.314 2.686 6 6 6s6-2.686 6-6c0-.006-.001-.011-.001-.017h.001z" fill="#fcca8b" data-original="#fcb98b" class=""></path><path xmlns="http://www.w3.org/2000/svg" d="m44 13.983v10.017c0 6.627-5.373 12-12 12-6.627 0-12-5.373-12-12v-10.017z" fill="#ffddb3" data-original="#ffd3b3" class=""></path><path xmlns="http://www.w3.org/2000/svg" d="m44 17h.693c1.217 0 2.152 1.078 1.98 2.284l-.427 2.983c-.141.985-.985 1.716-1.98 1.716h-.266z" fill="#ffddb3" data-original="#ffd3b3" class=""></path><path xmlns="http://www.w3.org/2000/svg" d="m20 17h-.693c-1.217 0-2.152 1.078-1.98 2.284l.427 2.983c.141.985.985 1.716 1.98 1.716h.266z" fill="#ffddb3" data-original="#ffd3b3" class=""></path><path xmlns="http://www.w3.org/2000/svg" d="m44 23.983-2-8h-10-10l-2 8v-11.983c0-5.523 4.477-10 10-10h5c2.209 0 4 1.791 4 4 2.761 0 5 2.239 5 5z" fill="#282b32" data-original="#6e83b7" class=""></path><g xmlns="http://www.w3.org/2000/svg" fill="#ffb0aa"><path d="m53 10h-2v-7h-7v-2h9z" fill="#5b1370" data-original="#ffb0aa" class=""></path><path d="m13 10h-2v-9h9v2h-7z" fill="#5b1370" data-original="#ffb0aa" class=""></path><path d="m53 39h-9v-2h7v-7h2z" fill="#5b1370" data-original="#ffb0aa" class=""></path><path d="m20 39h-9v-9h2v7h7z" fill="#5b1370" data-original="#ffb0aa" class=""></path><path d="m11 19h42v2h-42z" fill="#5b1370" data-original="#ffb0aa" class=""></path></g><circle xmlns="http://www.w3.org/2000/svg" cx="52" cy="52" fill="#98ca69" r="10" data-original="#98ca69" class=""></circle><circle xmlns="http://www.w3.org/2000/svg" cx="52" cy="52" fill="#edeff1" r="8" data-original="#edeff1" class=""></circle><path xmlns="http://www.w3.org/2000/svg" d="m51 55.914-3.707-3.707 1.414-1.414 2.293 2.293 5.043-5.043 1.414 1.414z" fill="#98ca69" data-original="#98ca69" class=""></path></g></svg>