<svg xmlns="http://www.w3.org/2000/svg" version="1.1" xmlns:xlink="http://www.w3.org/1999/xlink" xmlns:svgjs="http://svgjs.com/svgjs" width="512" height="512" x="0" y="0" viewBox="0 0 64 64" style="enable-background:new 0 0 512 512" xml:space="preserve" class=""><g><g xmlns="http://www.w3.org/2000/svg" id="Layer_39" data-name="Layer 39"><circle cx="32" cy="32" fill="#9bc9ff" r="29" data-original="#9bc9ff"></circle><circle cx="32" cy="32" fill="#57a4ff" r="25" data-original="#57a4ff" class=""></circle><path d="m32.145 3a29.023 29.023 0 0 1 .69 4.017 25 25 0 1 1 -24.911 31.712 29.35 29.35 0 0 1 -3.924.271c-.049 0-.1 0-.145 0a29 29 0 1 0 28.29-36z" fill="#57a4ff" data-original="#57a4ff" class=""></path><path d="m32 57a25 25 0 0 0 .835-49.979 29.013 29.013 0 0 1 .165 2.979 29 29 0 0 1 -25.076 28.729 25 25 0 0 0 24.076 18.271z" fill="#2488ff" data-original="#2488ff" class=""></path><g fill="#f1f2f2"><path d="m34 32a2 2 0 0 0 -2-2h-12a2 2 0 0 0 0 4h12a2 2 0 0 0 2-2z" fill="#f1f2f2" data-original="#f1f2f2" class=""></path><path d="m34 20h-6a2 2 0 0 0 0 4h6a8 8 0 0 1 0 16h-11a2 2 0 0 0 0 4h11a12 12 0 0 0 0-24z" fill="#f1f2f2" data-original="#f1f2f2" class=""></path></g></g></g></svg>