<svg xmlns="http://www.w3.org/2000/svg" version="1.1" xmlns:xlink="http://www.w3.org/1999/xlink" xmlns:svgjs="http://svgjs.com/svgjs" width="512" height="512" x="0" y="0" viewBox="0 0 64 64" style="enable-background:new 0 0 512 512" xml:space="preserve" class=""><g><g xmlns="http://www.w3.org/2000/svg" id="Layer_49" data-name="Layer 49"><circle cx="32" cy="32" fill="#2488ff" r="29" data-original="#2488ff"></circle><circle cx="32" cy="32" fill="#006df0" r="25" data-original="#006df0" class=""></circle><path d="m32.145 3a29.023 29.023 0 0 1 .69 4.017 25 25 0 1 1 -24.911 31.712 29.35 29.35 0 0 1 -3.924.271c-.049 0-.1 0-.145 0a29 29 0 1 0 28.29-36z" fill="#006df0" data-original="#006df0" class=""></path><path d="m32 57a25 25 0 0 0 .835-49.979 29.013 29.013 0 0 1 .165 2.979 29 29 0 0 1 -25.076 28.729 25 25 0 0 0 24.076 18.271z" fill="#005ece" data-original="#005ece"></path><g fill="#bddbff"><path d="m44.97 36-12.97 4.97-12.97-4.97 12.97 14.97z" fill="#bddbff" data-original="#bddbff" class=""></path><path d="m43.11 32.71-11.11-19.68-11.11 19.68 11.11 4.26z" fill="#bddbff" data-original="#bddbff" class=""></path></g></g></g></svg>