<?xml version="1.0" encoding="UTF-8" standalone="no"?>
<svg
   xmlns:dc="http://purl.org/dc/elements/1.1/"
   xmlns:cc="http://creativecommons.org/ns#"
   xmlns:rdf="http://www.w3.org/1999/02/22-rdf-syntax-ns#"
   xmlns:svg="http://www.w3.org/2000/svg"
   xmlns="http://www.w3.org/2000/svg"
   xmlns:sodipodi="http://sodipodi.sourceforge.net/DTD/sodipodi-0.dtd"
   xmlns:inkscape="http://www.inkscape.org/namespaces/inkscape"
   version="1.1"
   id="Layer_1"
   x="0px"
   y="0px"
   viewBox="0 0 47.619999 28.950001"
   xml:space="preserve"
   sodipodi:docname="vlza.svg"
   width="47.619999"
   height="28.950001"
   inkscape:version="1.0.1 (c497b03c, 2020-09-10)"><metadata
   id="metadata158"><rdf:RDF><cc:Work
       rdf:about=""><dc:format>image/svg+xml</dc:format><dc:type
         rdf:resource="http://purl.org/dc/dcmitype/StillImage" /></cc:Work></rdf:RDF></metadata><defs
   id="defs156" /><sodipodi:namedview
   pagecolor="#ffffff"
   bordercolor="#666666"
   borderopacity="1"
   objecttolerance="10"
   gridtolerance="10"
   guidetolerance="10"
   inkscape:pageopacity="0"
   inkscape:pageshadow="2"
   inkscape:window-width="1843"
   inkscape:window-height="790"
   id="namedview154"
   showgrid="false"
   inkscape:zoom="3.5782313"
   inkscape:cx="112.52483"
   inkscape:cy="61.839506"
   inkscape:window-x="0"
   inkscape:window-y="252"
   inkscape:window-maximized="0"
   inkscape:current-layer="Layer_1" />
<style
   type="text/css"
   id="style85">
	.st0{fill:#CB182E;}
	.st1{fill:#0033AB;}
	.st2{fill:#F5D119;}
	.st3{fill:#FFFFFF;}
	.st4{fill:#979797;}
	.st5{fill:#630DB5;}
</style>
<g
   id="g107"
   transform="translate(-5.69,-4.67)">
	<path
   class="st0"
   d="M 51.26,33.62 H 29.5 7.74 c -0.56,0 -1.08,-0.23 -1.45,-0.6 -0.37,-0.37 -0.6,-0.88 -0.6,-1.45 v -3.8 -3.8 H 29.5 53.31 v 3.8 3.8 c 0,0.56 -0.23,1.08 -0.6,1.45 -0.37,0.37 -0.88,0.6 -1.45,0.6 z"
   id="path87" />
	<polygon
   class="st1"
   points="5.69,14.32 29.5,14.32 53.31,14.32 53.31,19.14 53.31,23.97 29.5,23.97 5.69,23.97 5.69,19.14 "
   id="polygon89" />
	<path
   class="st2"
   d="M 53.31,14.32 H 29.5 5.69 v -3.8 -3.8 C 5.69,6.16 5.92,5.64 6.29,5.27 6.66,4.9 7.17,4.67 7.74,4.67 H 29.5 51.26 c 0.56,0 1.08,0.23 1.45,0.6 0.37,0.37 0.6,0.88 0.6,1.45 v 3.8 z"
   id="path91" />
	<path
   class="st3"
   d="m 30.33,16.54 c 0,0.24 -0.1,0.45 -0.25,0.61 -0.16,0.16 -0.37,0.25 -0.61,0.25 -0.24,0 -0.45,-0.1 -0.61,-0.25 -0.16,-0.16 -0.25,-0.37 -0.25,-0.61 0,-0.24 0.1,-0.45 0.25,-0.61 0.16,-0.16 0.37,-0.25 0.61,-0.25 0.24,0 0.45,0.1 0.61,0.25 0.16,0.15 0.25,0.37 0.25,0.61 z"
   id="path93" />
	<path
   class="st3"
   d="m 26.54,17.33 c 0,0.24 -0.1,0.45 -0.25,0.61 -0.16,0.16 -0.37,0.25 -0.61,0.25 -0.24,0 -0.45,-0.1 -0.61,-0.25 -0.16,-0.15 -0.25,-0.37 -0.25,-0.61 0,-0.24 0.1,-0.45 0.25,-0.61 0.16,-0.16 0.37,-0.25 0.61,-0.25 0.24,0 0.45,0.1 0.61,0.25 0.15,0.16 0.25,0.37 0.25,0.61 z"
   id="path95" />
	<path
   class="st3"
   d="m 34.12,17.33 c 0,0.24 -0.1,0.45 -0.25,0.61 -0.15,0.16 -0.37,0.25 -0.61,0.25 -0.24,0 -0.45,-0.1 -0.61,-0.25 -0.16,-0.16 -0.25,-0.37 -0.25,-0.61 0,-0.24 0.1,-0.45 0.25,-0.61 0.16,-0.16 0.37,-0.25 0.61,-0.25 0.24,0 0.45,0.1 0.61,0.25 0.16,0.16 0.25,0.37 0.25,0.61 z"
   id="path97" />
	<path
   class="st3"
   d="m 37.2,19.37 c 0,0.24 -0.1,0.45 -0.25,0.61 -0.16,0.16 -0.37,0.25 -0.61,0.25 -0.24,0 -0.45,-0.1 -0.61,-0.25 -0.16,-0.16 -0.25,-0.37 -0.25,-0.61 0,-0.24 0.1,-0.45 0.25,-0.61 0.15,-0.16 0.37,-0.25 0.61,-0.25 0.24,0 0.45,0.1 0.61,0.25 0.16,0.15 0.25,0.37 0.25,0.61 z"
   id="path99" />
	<path
   class="st3"
   d="m 23.46,19.37 c 0,0.24 -0.1,0.45 -0.25,0.61 -0.16,0.16 -0.37,0.25 -0.61,0.25 -0.24,0 -0.45,-0.1 -0.61,-0.25 -0.16,-0.16 -0.25,-0.37 -0.25,-0.61 0,-0.24 0.1,-0.45 0.25,-0.61 0.15,-0.16 0.37,-0.25 0.61,-0.25 0.24,0 0.45,0.1 0.61,0.25 0.16,0.15 0.25,0.37 0.25,0.61 z"
   id="path101" />
	<path
   class="st3"
   d="m 21.09,21.75 c 0,0.24 -0.1,0.45 -0.25,0.61 -0.16,0.16 -0.37,0.25 -0.61,0.25 -0.24,0 -0.45,-0.1 -0.61,-0.25 -0.16,-0.16 -0.25,-0.37 -0.25,-0.61 0,-0.24 0.1,-0.45 0.25,-0.61 0.16,-0.16 0.37,-0.25 0.61,-0.25 0.24,0 0.45,0.1 0.61,0.25 0.16,0.15 0.25,0.37 0.25,0.61 z"
   id="path103" />
	<path
   class="st3"
   d="m 39.57,21.75 c 0,0.24 -0.1,0.45 -0.25,0.61 -0.16,0.16 -0.37,0.25 -0.61,0.25 -0.24,0 -0.45,-0.1 -0.61,-0.25 -0.16,-0.16 -0.25,-0.37 -0.25,-0.61 0,-0.24 0.1,-0.45 0.25,-0.61 0.15,-0.16 0.37,-0.25 0.61,-0.25 0.24,0 0.45,0.1 0.61,0.25 0.16,0.15 0.25,0.37 0.25,0.61 z"
   id="path105" />
</g>


</svg>
